# xmcd CD database file generated by Grip 3.0.5
# 
# Track frame offsets:
#       150
#       2611
#       24602
#       42862
#       44518
#       61662
#       66391
#       87680
#       109364
#       115334
#       137515
#       169929
#       190779
#       199448
#       222590
#       245802
# 
# Disc length: 3683 seconds
# 
# Revision: 1
# Processed by: cddbd v1.5.1PL0 Copyright (c) Steve Scherf et al.
# Submitted via: Grip 3.0.5
# 
DISCID=f50e6110
DTITLE=Mama's Pit - Rush Hour  Disc 1
DYEAR=2004
DGENRE=Blues
TTITLE0=Barker's Voice
TTITLE1=Mister Evil
TTITLE2=Living In The Ghetto
TTITLE3=Before Recording
TTITLE4=The Way You Treated Me
TTITLE5=Steet Choir
TTITLE6=You're Takin Up Another Man's Place
TTITLE7=Keep Your Head Up
TTITLE8=Johnny Going To
TTITLE9=Mama's Pit
TTITLE10=The Thrill Is Gone
TTITLE11=Take Me To The River
TTITLE12=Mercedes Benz
TTITLE13=Little Wing
TTITLE14=What Should I Do
TTITLE15=Rock Me Baby
EXTD=
EXTT0=
EXTT1=
EXTT2=
EXTT3=
EXTT4=
EXTT5=
EXTT6=
EXTT7=
EXTT8=
EXTT9=
EXTT10=
EXTT11=
EXTT12=
EXTT13=
EXTT14=
EXTT15=
PLAYORDER=
